# xmcd
#
# Track frame offsets: 
#        150
#        24272
#        49765
#        75561
#        102374
#        119972
#        135582
#        172388
#
# Disc length: 2563 seconds
#
# Revision: 0
# Processed by: cddbd v1.5.2PL0 Copyright (c) Steve Scherf et al.
# Submitted via: ExactAudioCopy v1.3
#
DISCID=6c0a0108
DTITLE=Blues Cousins ,  - Live 2003
DYEAR=2003
DGENRE=Electric Blues
TTITLE0=Introduction  Johnny B.Goode
TTITLE1=No More Dogging
TTITLE2=She's My Woman
TTITLE3=Hoochie Coochie Man
TTITLE4=All Your Loving
TTITLE5=Come Together
TTITLE6=Three O'Clock Blues
TTITLE7=Moscow Boogie
EXTD=
EXTT0=
EXTT1=
EXTT2=
EXTT3=
EXTT4=
EXTT5=
EXTT6=
EXTT7=
PLAYORDER=
